<svg width="190" height="43" viewBox="0 0 190 43" fill="none" xmlns="http://www.w3.org/2000/svg">
<path d="M9.72 38.1801C7.66667 38.1801 5.8 37.8334 4.12 37.1401C2.46667 36.4201 1.09333 35.3934 0 34.0601L4.32 28.9401C5.06667 29.9001 5.84 30.6334 6.64 31.1401C7.44 31.6201 8.28 31.8601 9.16 31.8601C11.5067 31.8601 12.68 30.5001 12.68 27.7801V6.12H3V0H20.52V27.3001C20.52 30.9534 19.6 33.6867 17.76 35.5001C15.92 37.2867 13.24 38.1801 9.72 38.1801Z" fill="#B0CD00"/>
<path d="M34.6256 38.0201C32.8656 38.0201 31.279 37.6734 29.8656 36.9801C28.479 36.2867 27.3856 35.2067 26.5856 33.7401C25.8123 32.2467 25.4256 30.3667 25.4256 28.1001V15.9801H33.0256V26.8601C33.0256 28.5401 33.3323 29.7401 33.9456 30.4601C34.5856 31.1801 35.479 31.5401 36.6256 31.5401C37.3723 31.5401 38.0523 31.3667 38.6656 31.0201C39.279 30.6734 39.7723 30.1267 40.1456 29.3801C40.519 28.6067 40.7056 27.6201 40.7056 26.4201V13.0001H48.3056V37.6601H41.0656V31.5401L42.4656 33.2601C41.719 34.8601 40.639 36.0601 39.2256 36.8601C37.8123 37.6334 36.279 38.0201 34.6256 38.0201Z" fill="#B0CD00"/>
<path d="M66.4409 37.6601V33.6201L65.9209 32.6201V25.1801C65.9209 23.9801 65.5476 23.0601 64.8009 22.4201C64.0809 21.7534 62.9209 21.4201 61.3209 21.4201C60.2809 21.4201 59.2276 21.5934 58.1609 21.9401C57.0943 22.2601 56.1876 22.7134 55.4409 23.3001L52.8809 18.1401C54.1076 17.3401 55.5743 16.7267 57.2809 16.3001C59.0143 15.8467 60.7343 15.6201 62.4409 15.6201C65.9609 15.6201 68.6809 16.4334 70.6009 18.0601C72.5476 19.6601 73.5209 22.1801 73.5209 25.6201V37.6601H66.4409ZM60.0409 38.0201C58.3076 38.0201 56.8409 37.7267 55.6409 37.1401C54.4409 36.5534 53.5209 35.7534 52.8809 34.7401C52.2676 33.7267 51.9609 32.5934 51.9609 31.3401C51.9609 30.0067 52.2943 28.8601 52.9609 27.9001C53.6543 26.9134 54.7076 26.1667 56.1209 25.6601C57.5343 25.1267 59.3609 24.8601 61.6009 24.8601H66.7209V28.8201H62.6409C61.4143 28.8201 60.5476 29.0201 60.0409 29.4201C59.5609 29.8201 59.3209 30.3534 59.3209 31.0201C59.3209 31.6867 59.5743 32.2201 60.0809 32.6201C60.5876 33.0201 61.2809 33.2201 62.1609 33.2201C62.9876 33.2201 63.7343 33.0201 64.4009 32.6201C65.0943 32.1934 65.6009 31.5534 65.9209 30.7001L66.9609 33.5001C66.5609 34.9934 65.7743 36.1267 64.6009 36.9001C63.4543 37.6467 61.9343 38.0201 60.0409 38.0201Z" fill="#B0CD00"/>
<path d="M92.4381 15.6201C94.1181 15.6201 95.6381 15.9667 96.9981 16.6601C98.3581 17.3267 99.4248 18.3667 100.198 19.7801C100.998 21.1934 101.398 23.0201 101.398 25.2601V42.5001H93.7981V26.5001C93.7981 24.9534 93.4781 23.8334 92.8381 23.1401C92.2248 22.4201 91.3581 22.0601 90.2381 22.0601C89.4381 22.0601 88.7048 22.2467 88.0381 22.6201C87.3715 22.9667 86.8515 23.5134 86.4781 24.2601C86.1048 25.0067 85.9181 25.9801 85.9181 27.1801V37.6601H78.3181V15.9801H85.5581V22.1401L84.1581 20.3401C84.9848 18.7667 86.1181 17.5934 87.5581 16.8201C88.9981 16.0201 90.6248 15.6201 92.4381 15.6201Z" fill="#B0CD00"/>
<path d="M117.523 38.0201C115.123 38.0201 112.976 37.5401 111.083 36.5801C109.216 35.6201 107.75 34.3001 106.683 32.6201C105.616 30.9134 105.083 28.9667 105.083 26.7801C105.083 24.5934 105.616 22.6601 106.683 20.9801C107.75 19.3001 109.216 17.9934 111.083 17.0601C112.976 16.1001 115.123 15.6201 117.523 15.6201C119.976 15.6201 122.096 16.1401 123.883 17.1801C125.67 18.2201 126.936 19.6867 127.683 21.5801L121.803 24.5801C121.296 23.5667 120.67 22.8334 119.923 22.3801C119.176 21.9001 118.363 21.6601 117.483 21.6601C116.603 21.6601 115.803 21.8601 115.083 22.2601C114.363 22.6601 113.79 23.2467 113.363 24.0201C112.963 24.7667 112.763 25.6867 112.763 26.7801C112.763 27.9001 112.963 28.8467 113.363 29.6201C113.79 30.3934 114.363 30.9801 115.083 31.3801C115.803 31.7801 116.603 31.9801 117.483 31.9801C118.363 31.9801 119.176 31.7534 119.923 31.3001C120.67 30.8201 121.296 30.0734 121.803 29.0601L127.683 32.0601C126.936 33.9534 125.67 35.4201 123.883 36.4601C122.096 37.5001 119.976 38.0201 117.523 38.0201Z" fill="#B0CD00"/>
<path d="M144.587 15.6201C146.267 15.6201 147.787 15.9667 149.147 16.6601C150.507 17.3267 151.573 18.3667 152.347 19.7801C153.147 21.1934 153.547 23.0201 153.547 25.2601V37.6601H145.947V26.5001C145.947 24.9534 145.627 23.8334 144.987 23.1401C144.373 22.4201 143.507 22.0601 142.387 22.0601C141.587 22.0601 140.853 22.2467 140.187 22.6201C139.52 22.9667 139 23.5134 138.627 24.2601C138.253 25.0067 138.067 25.9801 138.067 27.1801V37.6601H130.467V7.98006H138.067V22.1401L136.307 20.3401C137.133 18.7667 138.267 17.5934 139.707 16.8201C141.147 16.0201 142.773 15.6201 144.587 15.6201Z" fill="#B0CD00"/>
<path d="M158.318 37.6601V15.9801H165.918V37.6601H158.318ZM162.118 13.5801C160.731 13.5801 159.611 13.1934 158.758 12.4201C157.905 11.6467 157.478 10.6867 157.478 9.54006C157.478 8.39339 157.905 7.43339 158.758 6.66006C159.611 5.88673 160.731 5.50006 162.118 5.50006C163.505 5.50006 164.625 5.87339 165.478 6.62006C166.331 7.34006 166.758 8.27339 166.758 9.42006C166.758 10.6201 166.331 11.6201 165.478 12.4201C164.651 13.1934 163.531 13.5801 162.118 13.5801Z" fill="#B0CD00"/>
<path d="M178.737 38.0201C176.897 38.0201 175.097 37.8067 173.337 37.3801C171.604 36.9534 170.204 36.4201 169.137 35.7801L171.417 30.5801C172.431 31.1934 173.617 31.6867 174.977 32.0601C176.337 32.4067 177.671 32.5801 178.977 32.5801C180.257 32.5801 181.137 32.4467 181.617 32.1801C182.124 31.9134 182.377 31.5534 182.377 31.1001C182.377 30.6734 182.137 30.3667 181.657 30.1801C181.204 29.9667 180.591 29.8067 179.817 29.7001C179.071 29.5934 178.244 29.4734 177.337 29.3401C176.431 29.2067 175.511 29.0334 174.577 28.8201C173.671 28.5801 172.831 28.2334 172.057 27.7801C171.311 27.3001 170.711 26.6601 170.257 25.8601C169.804 25.0601 169.577 24.0467 169.577 22.8201C169.577 21.4334 169.977 20.2067 170.777 19.1401C171.604 18.0467 172.804 17.1934 174.377 16.5801C175.951 15.9401 177.871 15.6201 180.137 15.6201C181.657 15.6201 183.191 15.7801 184.737 16.1001C186.311 16.3934 187.631 16.8467 188.697 17.4601L186.417 22.6201C185.351 22.0067 184.284 21.5934 183.217 21.3801C182.151 21.1401 181.137 21.0201 180.177 21.0201C178.897 21.0201 177.991 21.1667 177.457 21.4601C176.951 21.7534 176.697 22.1134 176.697 22.5401C176.697 22.9667 176.924 23.3001 177.377 23.5401C177.831 23.7534 178.431 23.9267 179.177 24.0601C179.951 24.1667 180.791 24.2867 181.697 24.4201C182.604 24.5267 183.511 24.7001 184.417 24.9401C185.351 25.1801 186.191 25.5401 186.937 26.0201C187.711 26.4734 188.324 27.1001 188.777 27.9001C189.231 28.6734 189.457 29.6734 189.457 30.9001C189.457 32.2334 189.044 33.4334 188.217 34.5001C187.417 35.5667 186.217 36.4201 184.617 37.0601C183.044 37.7001 181.084 38.0201 178.737 38.0201Z" fill="#B0CD00"/>
</svg>
